<?xml version="1.0" standalone="no"?>
<!DOCTYPE svg PUBLIC "-//W3C//DTD SVG 20010904//EN"
 "http://www.w3.org/TR/2001/REC-SVG-20010904/DTD/svg10.dtd">
<svg version="1.0" xmlns="http://www.w3.org/2000/svg"
 width="900.000000pt" height="900.000000pt" viewBox="0 0 900.000000 900.000000"
 preserveAspectRatio="xMidYMid meet">
<metadata>
Created by potrace 1.11, written by Peter Selinger 2001-2013
</metadata>
<g transform="translate(0.000000,900.000000) scale(0.100000,-0.100000)"
fill="#000000" stroke="none">
<path d="M0 4500 l0 -4500 4500 0 4500 0 0 4500 0 4500 -4500 0 -4500 0 0
-4500z m4706 3219 c115 -44 238 -91 274 -104 36 -13 137 -51 225 -85 88 -34
201 -78 250 -97 50 -19 119 -45 155 -58 36 -13 119 -44 185 -70 129 -50 308
-118 445 -170 125 -47 308 -117 445 -170 66 -26 149 -57 185 -70 36 -13 124
-46 195 -73 72 -28 213 -82 315 -121 l185 -70 3 -316 2 -315 -167 2 -168 3 -2
195 -2 195 -83 31 c-135 51 -392 148 -563 214 -88 34 -189 72 -225 85 -36 13
-112 42 -170 65 -58 22 -163 63 -235 90 -71 27 -220 83 -330 125 -110 42 -252
96 -315 120 -63 24 -223 85 -355 135 -132 51 -288 110 -347 132 l-108 40 -107
-40 c-102 -38 -388 -147 -728 -276 -82 -32 -220 -84 -305 -116 -85 -33 -227
-87 -315 -120 -88 -34 -230 -88 -315 -120 -85 -33 -227 -87 -315 -120 -200
-77 -454 -173 -563 -214 l-83 -32 -2 -194 -2 -195 -168 -3 -167 -2 2 315 3
316 185 70 c102 39 244 93 315 121 72 27 159 60 195 73 36 13 119 44 185 70
137 53 320 123 445 170 118 45 303 115 445 170 66 25 190 72 275 105 85 32
227 86 315 120 88 34 189 72 225 85 86 31 462 177 476 184 1 1 95 -35 210 -80z
m-46 -4114 l0 -1665 -167 2 -168 3 -3 1663 -2 1662 170 0 170 0 0 -1665z
m-1050 -355 l0 -1680 -170 0 -170 0 0 1680 0 1680 170 0 170 0 0 -1680z m2110
0 l0 -1680 -170 0 -170 0 0 1680 0 1680 170 0 170 0 0 -1680z m-3165 -445 l0
-1600 -167 -3 -168 -2 0 1605 0 1605 168 -2 167 -3 0 -1600z m4215 0 l0 -1605
-170 0 -170 0 0 1605 0 1605 170 0 170 0 0 -1605z"/>
</g>
</svg>
